<svg xmlns="http://www.w3.org/2000/svg" viewBox="0 0 32 32" fill="none">
  <rect width="32" height="32" rx="6" fill="#EF5129"/>
  <g transform="translate(4 5) scale(1)" stroke="#FBFAF8" stroke-width="1.75" stroke-linecap="round" stroke-linejoin="round">
    <path d="M12 2.18a2 2 0 0 0-1.66 0L2.6 6.08a1 1 0 0 0 0 1.83l8.58 3.91a2 2 0 0 0 1.66 0l8.58-3.9a1 1 0 0 0 0-1.83L12 2.18z"/>
    <path d="M2 12a1 1 0 0 0 .58.91l8 3.65a2 2 0 0 0 1.66 0l8-3.63A1 1 0 0 0 22 12"/>
    <path d="M2 17a1 1 0 0 0 .58.91l8 3.65a2 2 0 0 0 1.66 0l8-3.63A1 1 0 0 0 22 17"/>
  </g>
</svg>
